# xmcd CD database file
#
# Track frame offsets:
#	150
#	24571
#	54726
#	76464
#	106020
#	141455
#	171230
#	199637
#	221042
#	241304
#
# Disc length: 3728 seconds
#
# Revision: 0
# Processed by: cddbd v1.5.2PL0 Copyright (c) Steve Scherf et al.
# Submitted via: CDex 1.51
#
DISCID=8c0e8e0a
DTITLE=Joris Dudli Sextet - A Rewarding Journey
DYEAR=2008
DGENRE=Jazz
TTITLE0=Can't Buy Me Love
TTITLE1=Jean De Fleur
TTITLE2=Along Came Betty
TTITLE3=One For The Tradition
TTITLE4=Here's My Little Girl
TTITLE5=Evidence
TTITLE6=You Got Soul
TTITLE7=Hopeless Romantic
TTITLE8=Jumping Wth Nat
TTITLE9=Changed
EXTD=YEAR: 2008
EXTT0=
EXTT1=
EXTT2=
EXTT3=
EXTT4=
EXTT5=
EXTT6=
EXTT7=
EXTT8=
EXTT9=
PLAYORDER=
